<svg width="81" height="24" viewBox="0 0 81 24" fill="none" xmlns="http://www.w3.org/2000/svg">
<g clip-path="url(#clip0_2_441)">
<path d="M49.9738 18.7496C45.2973 22.1514 38.5189 23.9664 32.6829 23.9664C24.4998 23.9664 17.1329 20.9795 11.5596 16.0115C11.1217 15.6208 11.5141 15.0884 12.0395 15.3927C18.0542 18.8464 25.4912 20.9241 33.1733 20.9241C38.3543 20.9241 44.0537 19.8662 49.2943 17.6709C50.0859 17.3391 50.748 18.1826 49.9738 18.7496Z" fill="#FF9900"/>
<path d="M51.918 16.5542C51.3225 15.8005 47.9666 16.1981 46.4603 16.3744C46.0014 16.4297 45.9314 16.0356 46.3447 15.7521C49.0175 13.8956 53.4033 14.4315 53.9148 15.0538C54.4262 15.6795 53.7816 20.0183 51.27 22.0891C50.8846 22.4072 50.5168 22.2378 50.6885 21.816C51.2525 20.4262 52.5171 17.3113 51.918 16.5542Z" fill="#FF9900"/>
<path d="M46.5654 2.64612V0.841477C46.5654 0.568361 46.7756 0.385132 47.0278 0.385132H55.2144C55.4771 0.385132 55.6873 0.571819 55.6873 0.841477V2.38683C55.6838 2.64612 55.4631 2.98492 55.0708 3.52078L50.8286 9.49822C52.405 9.4602 54.0689 9.69182 55.4981 10.487C55.8204 10.6667 55.908 10.9295 55.9325 11.1888V13.1144C55.9325 13.3772 55.6383 13.6848 55.33 13.5258C52.8113 12.2225 49.4659 12.0807 46.681 13.5397C46.3973 13.6918 46.0995 13.3875 46.0995 13.1248V11.2959C46.0995 11.0021 46.103 10.5008 46.4008 10.0548L51.3155 3.09901H47.0383C46.7756 3.09901 46.5654 2.91578 46.5654 2.64612Z" fill="#221F1F"/>
<path d="M16.702 13.906H14.2114C13.9732 13.8888 13.784 13.7124 13.7665 13.4877V0.872535C13.7665 0.620162 13.9802 0.419645 14.2464 0.419645H16.5689C16.8106 0.430009 17.0033 0.613245 17.0208 0.841418V2.49049H17.0664C17.6724 0.896733 18.8109 0.153442 20.3452 0.153442C21.904 0.153442 22.8779 0.896733 23.5785 2.49049C24.181 0.896733 25.5507 0.153442 27.0185 0.153442C28.0624 0.153442 29.2044 0.578674 29.9015 1.53285C30.6897 2.5942 30.5285 4.1361 30.5285 5.48785L30.525 13.4497C30.525 13.7021 30.3113 13.906 30.0451 13.906H27.5579C27.3092 13.8888 27.1096 13.6917 27.1096 13.4497V6.76354C27.1096 6.23114 27.1586 4.90359 27.0395 4.39884C26.8538 3.55184 26.2969 3.31329 25.5752 3.31329C24.9727 3.31329 24.3422 3.71087 24.0864 4.34699C23.8307 4.9831 23.8552 6.04791 23.8552 6.76354V13.4497C23.8552 13.7021 23.6416 13.906 23.3753 13.906H20.8882C20.636 13.8888 20.4398 13.6917 20.4398 13.4497L20.4363 6.76354C20.4363 5.35648 20.671 3.28563 18.9019 3.28563C17.1119 3.28563 17.182 5.30462 17.182 6.76354V13.4497C17.182 13.7021 16.9683 13.906 16.702 13.906Z" fill="#221F1F"/>
<path d="M62.7354 0.153442C66.4311 0.153442 68.4313 3.28563 68.4313 7.26829C68.4313 11.1161 66.2209 14.1688 62.7354 14.1688C59.1062 14.1688 57.1305 11.0366 57.1305 7.13346C57.1305 3.20612 59.1308 0.153442 62.7354 0.153442ZM62.7564 2.72903C60.9208 2.72903 60.8052 5.19745 60.8052 6.73589C60.8052 8.27778 60.7807 11.569 62.7354 11.569C64.6656 11.569 64.7566 8.9139 64.7566 7.29595C64.7566 6.23114 64.7111 4.9589 64.3853 3.94941C64.1051 3.07129 63.5481 2.72903 62.7564 2.72903Z" fill="#221F1F"/>
<path d="M73.2235 13.906H70.7433C70.4946 13.8888 70.2949 13.6917 70.2949 13.4497L70.2915 0.831047C70.3125 0.599416 70.5191 0.419645 70.7714 0.419645H73.0799C73.297 0.430009 73.4757 0.575217 73.5247 0.772276V2.70137H73.5703C74.2674 0.976248 75.2447 0.153442 76.9647 0.153442C78.0822 0.153442 79.1716 0.551017 79.8722 1.64002C80.5238 2.64952 80.5238 4.34699 80.5238 5.56736V13.5085C80.4958 13.7297 80.2891 13.906 80.0439 13.906H77.5462C77.3185 13.8888 77.1294 13.7228 77.1048 13.5085V6.65637C77.1048 5.27696 77.266 3.25798 75.546 3.25798C74.94 3.25798 74.383 3.65901 74.1062 4.26747C73.7559 5.03842 73.7104 5.80591 73.7104 6.65637V13.4497C73.7069 13.7021 73.4897 13.906 73.2235 13.906Z" fill="#221F1F"/>
<path d="M40.0393 7.88024V7.34784C38.2387 7.34784 36.3365 7.72812 36.3365 9.82317C36.3365 10.8845 36.8935 11.6036 37.8499 11.6036C38.5505 11.6036 39.1775 11.1784 39.5734 10.4869C40.0638 9.63648 40.0393 8.83787 40.0393 7.88024ZM42.5509 13.8715C42.3863 14.0167 42.1481 14.0271 41.9624 13.9303C41.1357 13.2527 40.9886 12.9381 40.5332 12.2916C39.167 13.6675 38.2002 14.0789 36.4276 14.0789C34.3328 14.0789 32.7004 12.8032 32.7004 10.2484C32.7004 8.25361 33.7969 6.89495 35.3557 6.23117C36.7079 5.64345 38.596 5.53974 40.0393 5.37725V5.05919C40.0393 4.47493 40.0848 3.7835 39.738 3.27875C39.4332 2.82586 38.8517 2.63917 38.3403 2.63917C37.391 2.63917 36.5432 3.11972 36.3365 4.11538C36.2945 4.33664 36.1299 4.55445 35.9057 4.56482L33.4886 4.30898C33.2854 4.26404 33.0612 4.10155 33.1173 3.79387C33.6742 0.903679 36.319 0.0324707 38.6871 0.0324707C39.8991 0.0324707 41.4825 0.35053 42.4388 1.25631C43.6509 2.37297 43.5353 3.86301 43.5353 5.48442V9.31496C43.5353 10.4662 44.0187 10.9709 44.4741 11.5932C44.6352 11.8145 44.6703 12.0807 44.4671 12.2466C43.9591 12.665 43.0554 13.4428 42.5579 13.8784L42.5509 13.8715" fill="#221F1F"/>
<path d="M7.38748 7.88024V7.34784C5.58692 7.34784 3.68478 7.72812 3.68478 9.82317C3.68478 10.8845 4.24176 11.6036 5.19809 11.6036C5.89869 11.6036 6.52573 11.1784 6.92158 10.4869C7.412 9.63648 7.38748 8.83787 7.38748 7.88024ZM9.89916 13.8715C9.73451 14.0167 9.49631 14.0271 9.31065 13.9303C8.48393 13.2527 8.3368 12.9381 7.88141 12.2916C6.51523 13.6675 5.54839 14.0789 3.77585 14.0789C1.68104 14.0789 0.0486298 12.8032 0.0486298 10.2484C0.0486298 8.25361 1.14508 6.89495 2.70393 6.23117C4.0561 5.64345 5.94423 5.53974 7.38748 5.37725V5.05919C7.38748 4.47493 7.43302 3.7835 7.08622 3.27875C6.78146 2.82586 6.19995 2.63917 5.68851 2.63917C4.73919 2.63917 3.89146 3.11972 3.68478 4.11538C3.64274 4.33664 3.4781 4.55445 3.2539 4.56482L0.836812 4.30898C0.633636 4.26404 0.409441 4.10155 0.46549 3.79387C1.02247 0.903679 3.66726 0.0324707 6.03531 0.0324707C7.24736 0.0324707 8.83073 0.35053 9.78706 1.25631C10.9991 2.37297 10.8835 3.86301 10.8835 5.48442V9.31496C10.8835 10.4662 11.3669 10.9709 11.8223 11.5932C11.9835 11.8145 12.0185 12.0807 11.8153 12.2466C11.3074 12.665 10.4036 13.4428 9.90616 13.8784L9.89916 13.8715" fill="#221F1F"/>
</g>
<defs>
<clipPath id="clip0_2_441">
<rect width="80.5714" height="24" fill="white"/>
</clipPath>
</defs>
</svg>
